<svg width="85" height="85" xmlns="http://www.w3.org/2000/svg" xmlns:xlink="http://www.w3.org/1999/xlink" xml:space="preserve" overflow="hidden"><defs><clipPath id="clip0"><rect x="1003" y="186" width="85" height="85"/></clipPath></defs><g clip-path="url(#clip0)" transform="translate(-1003 -186)"><path d="M88.997 38.0961 88.997 76.3831C88.997 77.5675 88.0222 78.5423 86.8377 78.5423L30.2831 78.5384C29.0987 78.5384 28.1239 77.5637 28.1239 76.3792L28.1239 54.64 31.8131 54.64 31.8131 72.842 85.3187 72.842 85.3187 39.6272 45.9093 39.6272 45.9093 35.938 86.8407 35.938C88.0213 35.938 88.9961 36.9128 88.9961 38.0972ZM68.1704 85.0899 62.5316 85.0899 62.5316 80.7871 54.5977 80.7871 54.5977 85.0899 48.9512 85.0899C47.0018 85.0899 45.4212 86.6822 45.4212 88.62L45.425 89.4743 71.7115 89.4743 71.7115 88.62C71.6999 86.6705 70.1193 85.0899 68.1699 85.0899ZM48.5358 25.9256 55.5725 30.9274C55.8793 31.1449 56.3065 30.9274 56.3065 30.5508L56.3065 27.7663 68.3447 27.7663C68.5816 27.7663 68.7836 27.5683 68.7836 27.3275L68.7836 23.7781C68.7836 23.5411 68.5855 23.3392 68.3447 23.3392L56.2985 23.3431 56.2985 20.5587C56.2985 20.182 55.8713 19.9606 55.5645 20.182L48.5278 25.1838C48.3997 25.2731 48.3298 25.4012 48.3298 25.5605 48.3375 25.708 48.4074 25.8362 48.5356 25.9255ZM37.3207 16.2132 40.742 16.2132C41.2973 16.2132 41.8449 16.3142 42.3536 16.4929L37.045 11.1843C37.2236 11.7007 37.3245 12.2366 37.3245 12.7958ZM43.6662 52.3916 10.4206 52.3916 10.4206 9.94207 32.292 9.94207C33.7716 9.94207 35.0765 11.344 35.0765 12.7964L35.0765 17.34C35.0765 17.9575 35.5852 18.4623 36.1988 18.4623L40.7424 18.4623C42.2026 18.4623 43.6666 19.8138 43.6666 21.305ZM15.2899 16.5323C15.2899 17.1498 15.7987 17.6546 16.4122 17.6546L23.5889 17.6546C24.2063 17.6546 24.7112 17.1459 24.7112 16.5323 24.7112 15.9149 24.2025 15.41 23.5889 15.41L16.4122 15.41C15.7987 15.41 15.2899 15.9071 15.2899 16.5323ZM15.2899 21.8332C15.2899 22.4507 15.7987 22.9555 16.4122 22.9555L27.5965 22.9555C28.214 22.9555 28.7188 22.4468 28.7188 21.8332 28.7188 21.2157 28.2101 20.7109 27.5965 20.7109L16.4162 20.707C15.7987 20.707 15.29 21.2041 15.29 21.8332ZM38.7928 43.0286C38.7928 42.4111 38.2841 41.9063 37.6705 41.9063L16.4164 41.9024C15.7989 41.9024 15.2941 42.4111 15.2941 43.0247 15.2941 43.6422 15.8028 44.147 16.4164 44.147L37.6705 44.147C38.2957 44.1509 38.7928 43.6422 38.7928 43.0286ZM38.7928 37.7278C38.7928 37.1103 38.2841 36.6055 37.6705 36.6055L16.4164 36.6055C15.7989 36.6055 15.2941 37.1142 15.2941 37.7278 15.2941 38.3452 15.8028 38.8501 16.4164 38.8501L37.6705 38.8501C38.2957 38.8501 38.7928 38.3452 38.7928 37.7278ZM38.7928 32.4308C38.7928 31.8133 38.2841 31.3085 37.6705 31.3085L16.4164 31.3046C15.7989 31.3046 15.2941 31.8133 15.2941 32.4269 15.2941 33.0444 15.8028 33.5492 16.4164 33.5492L37.6705 33.5492C38.2957 33.5531 38.7928 33.0444 38.7928 32.4308ZM38.7928 27.13C38.7928 26.5125 38.2841 26.0077 37.6705 26.0077L16.4164 26.0077C15.7989 26.0077 15.2941 26.5164 15.2941 27.13 15.2941 27.7474 15.8028 28.2523 16.4164 28.2523L37.6705 28.2523C38.2957 28.2561 38.7928 27.7474 38.7928 27.13ZM61.561 61.6183 68.5977 56.6165C68.7259 56.5272 68.7958 56.3989 68.7958 56.2398 68.7958 56.0805 68.7259 55.9524 68.5977 55.8631L61.561 50.8613C61.2542 50.6438 60.827 50.8613 60.827 51.238L60.827 54.0224 48.7729 54.0224C48.5359 54.0224 48.334 54.2204 48.334 54.4612L48.334 58.0107C48.334 58.2476 48.5321 58.4495 48.7729 58.4495L60.8111 58.4495 60.8111 61.2339C60.8227 61.6184 61.2499 61.8359 61.5606 61.6184Z" fill="#0070C0" fill-rule="evenodd" transform="matrix(1.00884 0 0 1 995.177 178.881)"/><text fill="#0070C0" font-family="Arial,Arial_MSFontService,sans-serif" font-weight="700" font-size="5" transform="matrix(1.00294 0 0 0.994157 995.177 296)">Created by Syaiful Khotam</text><text fill="#0070C0" font-family="Arial,Arial_MSFontService,sans-serif" font-weight="700" font-size="5" transform="matrix(1.00294 0 0 0.994157 995.177 301)">from Noun Project</text></g></svg>