<svg xmlns="http://www.w3.org/2000/svg" version="1.1" viewBox="-5.0 -10.0 110.0 135.0">
 <path d="m89.52 38.32v38.512c0 1.1914-0.98047 2.1719-2.1719 2.1719l-56.887-0.003906c-1.1914 0-2.1719-0.98047-2.1719-2.1719v-21.867h3.7109v18.309h53.82v-33.41h-39.641v-3.7109h41.172c1.1875 0 2.168 0.98047 2.168 2.1719zm-20.949 47.27h-5.6719v-4.3281h-7.9805v4.3281h-5.6797c-1.9609 0-3.5508 1.6016-3.5508 3.5508l0.003906 0.85938h26.441v-0.85938c-0.011718-1.9609-1.6016-3.5508-3.5625-3.5508zm-19.75-59.512 7.0781 5.0312c0.30859 0.21875 0.73828 0 0.73828-0.37891v-2.8008h12.109c0.23828 0 0.44141-0.19922 0.44141-0.44141v-3.5703c0-0.23828-0.19922-0.44141-0.44141-0.44141l-12.117 0.003907v-2.8008c0-0.37891-0.42969-0.60156-0.73828-0.37891l-7.0781 5.0312c-0.12891 0.089844-0.19922 0.21875-0.19922 0.37891 0.007813 0.14844 0.078125 0.27734 0.20703 0.36719zm-11.281-9.7695h3.4414c0.55859 0 1.1094 0.10156 1.6211 0.28125l-5.3398-5.3398c0.17969 0.51953 0.28125 1.0586 0.28125 1.6211zm6.3828 36.391h-33.441v-42.699h22c1.4883 0 2.8008 1.4102 2.8008 2.8711v4.5703c0 0.62109 0.51172 1.1289 1.1289 1.1289h4.5703c1.4688 0 2.9414 1.3594 2.9414 2.8594zm-28.543-36.07c0 0.62109 0.51172 1.1289 1.1289 1.1289h7.2188c0.62109 0 1.1289-0.51172 1.1289-1.1289 0-0.62109-0.51172-1.1289-1.1289-1.1289h-7.2188c-0.61719 0-1.1289 0.5-1.1289 1.1289zm0 5.332c0 0.62109 0.51172 1.1289 1.1289 1.1289h11.25c0.62109 0 1.1289-0.51172 1.1289-1.1289 0-0.62109-0.51172-1.1289-1.1289-1.1289l-11.246-0.003906c-0.62109 0-1.1328 0.5-1.1328 1.1328zm23.641 21.32c0-0.62109-0.51172-1.1289-1.1289-1.1289l-21.379-0.003906c-0.62109 0-1.1289 0.51172-1.1289 1.1289 0 0.62109 0.51172 1.1289 1.1289 1.1289h21.379c0.62891 0.003906 1.1289-0.50781 1.1289-1.125zm0-5.332c0-0.62109-0.51172-1.1289-1.1289-1.1289h-21.379c-0.62109 0-1.1289 0.51172-1.1289 1.1289 0 0.62109 0.51172 1.1289 1.1289 1.1289h21.379c0.62891 0 1.1289-0.50781 1.1289-1.1289zm0-5.3281c0-0.62109-0.51172-1.1289-1.1289-1.1289l-21.379-0.003907c-0.62109 0-1.1289 0.51172-1.1289 1.1289 0 0.62109 0.51172 1.1289 1.1289 1.1289h21.379c0.62891 0.003906 1.1289-0.50781 1.1289-1.125zm0-5.332c0-0.62109-0.51172-1.1289-1.1289-1.1289h-21.379c-0.62109 0-1.1289 0.51172-1.1289 1.1289 0 0.62109 0.51172 1.1289 1.1289 1.1289h21.379c0.62891 0.003906 1.1289-0.50781 1.1289-1.1289zm22.902 34.691 7.0781-5.0312c0.12891-0.089844 0.19922-0.21875 0.19922-0.37891 0-0.16016-0.070313-0.28906-0.19922-0.37891l-7.0781-5.0312c-0.30859-0.21875-0.73828 0-0.73828 0.37891v2.8008h-12.125c-0.23828 0-0.44141 0.19922-0.44141 0.44141v3.5703c0 0.23828 0.19922 0.44141 0.44141 0.44141h12.109v2.8008c0.011719 0.38672 0.44141 0.60547 0.75391 0.38672z" fill-rule="evenodd"/>
<text x="0.0" y="117.5" font-size="5.0" font-weight="bold" font-family="Arbeit Regular, Helvetica, Arial-Unicode, Arial, Sans-serif" fill="#000000">Created by Syaiful Khotam</text><text x="0.0" y="122.5" font-size="5.0" font-weight="bold" font-family="Arbeit Regular, Helvetica, Arial-Unicode, Arial, Sans-serif" fill="#000000">from Noun Project</text></svg>